<svg width="548" height="223" viewBox="0 0 548 223" fill="none" xmlns="http://www.w3.org/2000/svg">
<path d="M66.4283 140.572C61.3086 140.632 56.0895 138.431 50.7709 133.97L49.779 139.101L31.3483 139.316L48.2464 57.707L67.1731 54.927L52.2629 126.912C54.6627 128.591 57.0999 129.416 59.5744 129.387C64.438 129.331 68.6868 126.465 72.3207 120.791C76.0399 115.115 78.8963 107.914 80.8898 99.186C82.8832 90.4584 83.8522 81.6573 83.7968 72.7828C83.7445 64.4203 82.0425 58.3384 78.6908 54.5372C75.4238 50.6496 70.8465 48.74 64.9589 48.8084C58.5593 48.8827 52.8077 50.2296 47.7041 52.849C42.6852 55.3821 38.7399 59.0121 35.868 63.7391C32.9962 68.466 31.5801 73.9868 31.6195 80.3013C31.6392 83.4586 31.9517 85.6737 32.557 86.9468C33.1618 88.1345 33.4647 88.8137 33.4658 88.9843C29.0287 89.0359 25.6098 88.1369 23.2089 86.2873C20.8933 84.4368 19.7224 81.4209 19.6963 77.2397C19.6601 71.4371 21.8015 65.9079 26.1207 60.6521C30.4399 55.3964 36.216 51.1477 43.4491 47.9062C50.7676 44.6637 58.6505 42.9933 67.098 42.8952C78.7878 42.7594 87.4275 46.1152 93.017 52.9627C98.6065 59.8101 101.435 68.6097 101.502 79.3615C101.563 89.0893 99.9589 98.7084 96.6903 108.219C93.5065 117.643 89.2028 125.373 83.7791 131.41C78.3555 137.447 72.5719 140.501 66.4283 140.572ZM122.494 139.025C116.18 139.098 111.263 137.534 107.745 134.332C104.225 131.045 102.444 125.902 102.4 118.905C102.363 113.017 103.475 106.519 105.734 99.4094C107.994 92.3001 111.71 86.1553 116.883 80.9749C122.056 75.7092 128.652 73.0298 136.673 72.9366C146.059 72.8276 150.778 76.869 150.829 85.0608C150.859 89.8394 149.521 94.2498 146.816 98.2921C144.11 102.334 140.504 105.619 135.997 108.146C131.49 110.588 126.677 112.009 121.56 112.41C121.405 114.972 121.33 116.68 121.336 117.533C121.362 121.714 122.105 124.565 123.565 126.084C125.025 127.517 127.376 128.216 130.618 128.178C135.226 128.124 139.144 127.012 142.373 124.841C145.688 122.669 149.294 119.384 153.192 114.987L157.544 114.936C148.171 130.833 136.488 138.862 122.494 139.025ZM122.545 106.254C125.701 106.047 128.681 104.903 131.484 102.822C134.372 100.741 136.66 98.1114 138.346 94.9343C140.119 91.7562 140.994 88.4179 140.972 84.9193C140.95 81.4207 139.873 79.6838 137.739 79.7086C134.668 79.7442 131.655 82.4674 128.702 87.878C125.835 93.2876 123.782 99.4131 122.545 106.254ZM165.984 138.52C161.888 138.567 158.552 137.326 155.977 134.796C153.486 132.264 152.225 128.439 152.193 123.319C152.18 121.186 152.504 118.408 153.165 114.987L166.459 50.7014L185.386 47.9214L171.099 117.211C170.766 118.495 170.603 119.862 170.612 121.313C170.623 123.02 171.015 124.252 171.788 125.011C172.645 125.684 174.013 126.01 175.89 125.988C178.364 125.959 180.662 124.908 182.782 122.836C184.902 120.678 186.421 117.929 187.339 114.59L192.714 114.528C189.615 123.78 185.601 130.099 180.673 133.485C175.744 136.785 170.848 138.463 165.984 138.52ZM208.362 66.3435C205.546 66.3762 203.151 65.4226 201.176 63.4828C199.201 61.543 198.205 59.1651 198.188 56.3491C198.17 53.5332 199.136 51.1325 201.087 49.1471C203.036 47.0763 205.419 46.0246 208.235 45.9919C211.051 45.9592 213.446 46.9554 215.422 48.9806C217.482 50.9194 218.521 53.2968 218.538 56.1127C218.556 58.9287 217.547 61.3299 215.511 63.3163C213.561 65.3017 211.178 66.3108 208.362 66.3435ZM200.107 138.123C196.011 138.171 192.675 136.929 190.099 134.399C187.609 131.868 186.348 128.042 186.316 122.923C186.302 120.789 186.626 118.012 187.288 114.591L195.734 73.4025L214.165 73.1884L205.222 116.815C204.888 118.099 204.726 119.466 204.735 120.917C204.746 122.623 205.138 123.856 205.91 124.615C206.768 125.288 208.135 125.613 210.012 125.591C212.487 125.563 214.784 124.512 216.905 122.439C219.025 120.281 220.543 117.533 221.461 114.194L226.837 114.131C223.737 123.384 219.723 129.703 214.795 133.088C209.867 136.388 204.97 138.067 200.107 138.123ZM239.861 137.661C233.547 137.735 228.63 136.17 225.112 132.968C221.592 129.681 219.811 124.539 219.767 117.542C219.73 111.654 220.842 105.155 223.101 98.0459C225.446 90.9357 229.163 84.7908 234.25 79.6115C239.423 74.3458 245.977 71.6668 253.912 71.5746C259.032 71.5152 262.665 72.5823 264.812 74.7762C267.045 76.969 268.171 79.7721 268.193 83.1854C268.211 86.172 267.586 88.4834 266.316 90.1195C265.046 91.7557 263.43 92.5852 261.468 92.608C260.017 92.6248 258.521 92.1302 256.978 91.1241C257.985 88.2962 258.481 85.773 258.467 83.5544C258.457 81.9331 258.15 80.6566 257.547 79.7248C256.944 78.7931 256.045 78.3342 254.85 78.3481C252.291 78.3778 249.744 80.4982 247.21 84.7092C244.676 88.9202 242.618 94.0217 241.034 100.014C239.45 106.006 238.673 111.391 238.703 116.17C238.729 120.351 239.472 123.201 240.932 124.72C242.392 126.154 244.743 126.852 247.985 126.814C252.593 126.761 256.511 125.649 259.74 123.478C263.055 121.306 266.661 118.021 270.559 113.623L274.911 113.573C265.538 129.469 253.855 137.499 239.861 137.661ZM291.607 65.3764C288.791 65.4092 286.395 64.4556 284.421 62.5158C282.446 60.5759 281.45 58.198 281.432 55.3821C281.414 52.5662 282.381 50.1655 284.331 48.18C286.281 46.1093 288.664 45.0575 291.479 45.0248C294.295 44.9921 296.691 45.9884 298.666 48.0135C300.726 49.9524 301.765 52.3297 301.783 55.1457C301.8 57.9616 300.791 60.3628 298.756 62.3492C296.805 64.3347 294.422 65.3437 291.607 65.3764ZM283.351 137.156C279.255 137.204 275.92 135.962 273.344 133.432C270.853 130.901 269.592 127.075 269.56 121.956C269.547 119.822 269.871 117.045 270.532 113.624L278.979 72.4355L297.409 72.2214L288.466 115.848C288.133 117.132 287.97 118.499 287.98 119.949C287.99 121.656 288.382 122.889 289.155 123.648C290.012 124.321 291.38 124.646 293.257 124.624C295.731 124.596 298.029 123.545 300.149 121.472C302.269 119.314 303.788 116.566 304.706 113.227L310.081 113.164C306.982 122.417 302.968 128.736 298.04 132.121C293.111 135.421 288.215 137.1 283.351 137.156ZM323.488 136.434C317.174 136.507 312.172 134.944 308.482 131.744C304.793 128.544 302.926 123.445 302.883 116.448C302.846 110.646 304.001 104.189 306.346 97.0789C308.691 89.9686 312.492 83.8228 317.751 78.6414C323.008 73.3748 329.648 70.6948 337.668 70.6017C348.59 70.4748 354.094 77.2379 354.179 90.8909L354.18 91.0189C354.437 91.1013 354.906 91.1385 355.589 91.1306C358.405 91.0979 361.643 90.3349 365.303 88.8416C368.962 87.263 372.278 85.3897 375.252 83.2217L376.425 86.6643C373.967 89.3383 370.739 91.6373 366.74 93.5612C362.826 95.3987 358.525 96.7288 353.837 97.5513C353.203 105.324 351.496 112.129 348.716 117.964C345.937 123.799 342.338 128.321 337.921 131.53C333.504 134.739 328.693 136.373 323.488 136.434ZM328.535 124.855C330.583 124.831 332.624 123.655 334.657 121.327C336.69 118.914 338.462 115.693 339.973 111.665C341.483 107.551 342.564 103.016 343.216 98.0587C340.909 97.5734 339.746 95.7949 339.727 92.7229C339.705 89.2243 341.013 86.905 343.651 85.765C343.463 82.951 343.024 81.036 342.335 80.0199C341.646 78.9186 340.448 78.3778 338.741 78.3976C335.925 78.4303 333.208 80.51 330.588 84.6366C327.969 88.7633 325.866 93.6946 324.281 99.4307C322.695 105.167 321.916 110.211 321.943 114.563C321.969 118.659 322.455 121.426 323.403 122.866C324.35 124.221 326.061 124.883 328.535 124.855ZM373.72 136.106C369.624 136.154 366.288 134.913 363.713 132.382C361.222 129.851 359.961 126.026 359.929 120.906C359.916 118.772 360.24 115.995 360.901 112.574L369.348 71.3857L387.778 71.1716L378.835 114.798C378.587 116.081 378.466 117.277 378.473 118.386C378.495 121.885 379.786 123.619 382.346 123.589C384.735 123.562 386.777 122.557 388.471 120.574C390.165 118.506 391.513 115.717 392.515 112.207L400.961 71.0184L419.392 70.8043L410.449 114.431C410.115 115.714 409.953 117.082 409.962 118.532C409.973 120.239 410.365 121.472 411.137 122.231C411.995 122.904 413.362 123.229 415.24 123.207C417.629 123.18 419.67 122.132 421.364 120.064C423.143 117.995 424.534 115.248 425.536 111.823L430.912 111.761C427.813 121.013 423.927 127.331 419.254 130.713C414.667 134.009 410.027 135.685 405.334 135.739C401.665 135.782 398.715 134.792 396.483 132.77C394.337 130.747 393.038 127.732 392.587 123.727C389.715 128.453 386.663 131.689 383.431 133.433C380.285 135.177 377.048 136.068 373.72 136.106ZM440.26 135.333C436.165 135.381 432.704 134.653 429.879 133.15C427.053 131.561 424.95 129.538 423.569 127.079C422.188 124.535 421.488 121.897 421.471 119.167C421.454 116.351 422.121 113.911 423.474 111.847C424.74 109.699 426.309 108.145 428.181 107.184C431.471 101.172 434.335 95.1227 436.771 89.0354C439.207 82.8628 441.512 76.2223 443.687 69.114L462.613 66.334C463.108 77.2515 463.907 89.0615 465.011 101.764C465.469 106.879 465.706 110.588 465.72 112.892C465.753 118.098 464.457 122.38 461.833 125.738C459.208 129.097 455.938 131.524 452.022 133.021C448.191 134.516 444.271 135.287 440.26 135.333ZM436.102 125.269C439.259 125.232 441.898 124.263 444.019 122.361C446.141 120.459 447.189 117.417 447.162 113.236C447.146 110.676 446.868 107.095 446.327 102.493C445.413 92.7752 444.818 86.2538 444.541 82.9288C442.535 89.6938 439.13 97.7978 434.325 107.241C436.294 108.242 437.284 109.724 437.297 111.687C437.307 113.308 436.761 114.765 435.66 116.058C434.644 117.35 433.325 118.005 431.704 118.024C429.912 118.045 428.757 117.503 428.238 116.4C428.257 119.472 428.869 121.726 430.072 123.163C431.361 124.599 433.371 125.301 436.102 125.269ZM487.848 40.4395L507.542 37.5226L489.4 104.425L478.52 104.551L487.848 40.4395ZM480.502 134.866C477.686 134.899 475.248 133.946 473.188 132.007C471.213 129.982 470.216 127.561 470.198 124.745C470.181 121.929 471.147 119.528 473.097 117.543C475.133 115.557 477.559 114.547 480.375 114.514C483.19 114.482 485.586 115.435 487.56 117.375C489.535 119.315 490.531 121.693 490.549 124.509C490.567 127.325 489.601 129.768 487.651 131.839C485.701 133.824 483.318 134.833 480.502 134.866Z" fill="black"/>
<path d="M378.872 186.123C337.343 182.073 153.676 199.481 115.312 217.579C115.312 218.441 115.744 218.492 116.271 218.441C120.683 218.01 196.392 204.947 251.216 200.515C268.979 199.079 288.37 197.994 306.652 195.948C324.933 193.902 378.872 186.123 378.872 186.123Z" fill="black"/>
<path d="M498.855 160.355C498.855 160.355 499.238 160.528 498.759 161.39C498.502 161.505 497.512 162.079 495.018 163.113C491.374 165.182 346.114 160.543 262.15 168.456L20.1692 188.967C17.9317 189.136 19.5937 187.502 19.5937 187.502C50.6589 178.673 82.5105 169.318 167.007 162.855C224.937 156.825 332.749 151.03 354.798 151.479C387.695 151.479 457.752 155.671 498.855 160.355Z" fill="black"/>
</svg>
